<svg width="599" height="96" viewBox="0 0 599 96" fill="none" xmlns="http://www.w3.org/2000/svg">
  <path d="M34.3766 77C29.7309 69.9322 69.5695 61.3534 71.4714 60.9525C123.08 50.0737 174.827 42.5348 226.664 34.9233C264.412 29.3805 302.456 21.2479 340.371 19.0293C341.585 18.9583 353.588 18.824 353.443 21.256C353.037 28.0393 335.071 33.9786 331.741 35.5375C323.285 39.4957 314.627 41.9822 306.103 45.5192C301.771 47.3166 297.45 49.158 293.082 50.7404C292.044 51.1164 286.623 52.5147 291.063 53.5046C305.584 56.7423 320.936 54.3217 335.476 52.8135C358.019 50.4751 380.464 45.8146 402.953 42.5247C441.584 36.8735 480.769 33.5221 519.587 35.2304C531.728 35.7647 543.881 35.5375 556.026 35.5375C559.619 35.5375 563.208 37.4152 564 31.3913" stroke="#ff3379" stroke-width="4" stroke-linecap="round"/>
</svg>